# xmcd CD database file
# Copyright (C) 1996 Ti Kan
#
# Track frame offsets:
#  180
#  20571
#  62414
#  85373
#  106086
#  146860
#  165753
#  201987
#
# Disc length: 3360 seconds
#
# Revision: 1
# Processed by: cddbd v1.4b41PL1 Copyright (c) Steve Scherf et al.
# Submitted via: CDWizzard Release:4.13
#
DISCID=630d1e08
DTITLE=Jeff Williams - Burning Blue
DYEAR=1900
DGENRE=
TTITLE0=The Metro
TTITLE1=Mercy, Mercy
TTITLE2=Sunset Ballet
TTITLE3=K.C.'s Shuffle
TTITLE4=Crosby Park
TTITLE5=The Long Walk Home
TTITLE6=Blues for T-Town
TTITLE7=Chameleon
EXTD=
EXTT0=
EXTT1=
EXTT2=
EXTT3=
EXTT4=
EXTT5=
EXTT6=
EXTT7=
PLAYORDER=
